REM DIRINDEX 1\2,1\3,1\4,1\5
REM DIRNAME cjc004,folder01,folder02,folder03,folder04
TITLE ""
FILE "1Q_t_0263-0272.mp3" MP3
  TRACK 01 AUDIO
    TITLE "3:cjc004_1690"
    INDEX 01 00:00:00
  TRACK 02 AUDIO
    TITLE "0:"
    INDEX 01 00:00:72
  TRACK 03 AUDIO
    TITLE "4:cjc004_1691"
    INDEX 01 00:01:11
  TRACK 04 AUDIO
    TITLE "0:"
    INDEX 01 00:02:24
  TRACK 05 AUDIO
    TITLE "5:cjc004_1692"
    INDEX 01 00:02:45
  TRACK 06 AUDIO
    TITLE "0:"
    INDEX 01 00:06:63
  TRACK 07 AUDIO
    TITLE "3:cjc004_1693"
    INDEX 01 00:07:47
  TRACK 08 AUDIO
    TITLE "0:"
    INDEX 01 00:08:54
  TRACK 09 AUDIO
    TITLE "4:cjc004_1694"
    INDEX 01 00:08:73
  TRACK 10 AUDIO
    TITLE "0:"
    INDEX 01 00:10:19
  TRACK 11 AUDIO
    TITLE "5:cjc004_1695"
    INDEX 01 00:10:41
  TRACK 12 AUDIO
    TITLE "0:"
    INDEX 01 00:14:41
  TRACK 13 AUDIO
    TITLE "3:cjc004_1696"
    INDEX 01 00:15:19
  TRACK 14 AUDIO
    TITLE "0:"
    INDEX 01 00:16:30
  TRACK 15 AUDIO
    TITLE "4:cjc004_1697"
    INDEX 01 00:16:63
  TRACK 16 AUDIO
    TITLE "0:"
    INDEX 01 00:17:69
  TRACK 17 AUDIO
    TITLE "5:cjc004_1698"
    INDEX 01 00:18:17
  TRACK 18 AUDIO
    TITLE "0:"
    INDEX 01 00:22:42
  TRACK 19 AUDIO
    TITLE "3:cjc004_1699"
    INDEX 01 00:23:28
  TRACK 20 AUDIO
    TITLE "0:"
    INDEX 01 00:24:47
  TRACK 21 AUDIO
    TITLE "4:cjc004_1700"
    INDEX 01 00:25:01
  TRACK 22 AUDIO
    TITLE "0:"
    INDEX 01 00:26:05
  TRACK 23 AUDIO
    TITLE "5:cjc004_1701"
    INDEX 01 00:26:32
  TRACK 24 AUDIO
    TITLE "0:"
    INDEX 01 00:30:38
  TRACK 25 AUDIO
    TITLE "3:cjc004_1702"
    INDEX 01 00:31:20
  TRACK 26 AUDIO
    TITLE "0:"
    INDEX 01 00:32:39
  TRACK 27 AUDIO
    TITLE "4:cjc004_1703"
    INDEX 01 00:32:72
  TRACK 28 AUDIO
    TITLE "0:"
    INDEX 01 00:34:06
  TRACK 29 AUDIO
    TITLE "5:cjc004_1704"
    INDEX 01 00:34:38
  TRACK 30 AUDIO
    TITLE "0:"
    INDEX 01 00:40:15
  TRACK 31 AUDIO
    TITLE "3:cjc004_1705"
    INDEX 01 00:40:66
  TRACK 32 AUDIO
    TITLE "0:"
    INDEX 01 00:42:06
  TRACK 33 AUDIO
    TITLE "4:cjc004_1706"
    INDEX 01 00:42:35
  TRACK 34 AUDIO
    TITLE "0:"
    INDEX 01 00:43:46
  TRACK 35 AUDIO
    TITLE "5:cjc004_1707"
    INDEX 01 00:43:70
  TRACK 36 AUDIO
    TITLE "0:"
    INDEX 01 00:48:44
  TRACK 37 AUDIO
    TITLE "3:cjc004_1708"
    INDEX 01 00:49:25
  TRACK 38 AUDIO
    TITLE "0:"
    INDEX 01 00:50:31
  TRACK 39 AUDIO
    TITLE "4:cjc004_1709"
    INDEX 01 00:50:54
  TRACK 40 AUDIO
    TITLE "0:"
    INDEX 01 00:51:65
  TRACK 41 AUDIO
    TITLE "5:cjc004_1710"
    INDEX 01 00:52:18
  TRACK 42 AUDIO
    TITLE "0:"
    INDEX 01 00:56:00
  TRACK 43 AUDIO
    TITLE "3:cjc004_1711"
    INDEX 01 00:56:61
  TRACK 44 AUDIO
    TITLE "0:"
    INDEX 01 00:58:01
  TRACK 45 AUDIO
    TITLE "4:cjc004_1712"
    INDEX 01 00:58:28
  TRACK 46 AUDIO
    TITLE "0:"
    INDEX 01 00:59:39
  TRACK 47 AUDIO
    TITLE "5:cjc004_1713"
    INDEX 01 00:59:67
  TRACK 48 AUDIO
    TITLE "0:"
    INDEX 01 01:05:62
  TRACK 49 AUDIO
    TITLE "3:cjc004_1714"
    INDEX 01 01:06:45
  TRACK 50 AUDIO
    TITLE "0:"
    INDEX 01 01:07:66
  TRACK 51 AUDIO
    TITLE "4:cjc004_1715"
    INDEX 01 01:08:19
  TRACK 52 AUDIO
    TITLE "0:"
    INDEX 01 01:09:30
  TRACK 53 AUDIO
    TITLE "5:cjc004_1716"
    INDEX 01 01:09:59
  TRACK 54 AUDIO
    TITLE "0:"
    INDEX 01 01:15:19
  TRACK 55 AUDIO
    TITLE "3:cjc004_1717"
    INDEX 01 01:16:03
  TRACK 56 AUDIO
    TITLE "0:"
    INDEX 01 01:17:12
  TRACK 57 AUDIO
    TITLE "4:cjc004_1718"
    INDEX 01 01:17:28
  TRACK 58 AUDIO
    TITLE "0:"
    INDEX 01 01:18:66
  TRACK 59 AUDIO
    TITLE "5:cjc004_1719"
    INDEX 01 01:19:19
  TRACK 60 AUDIO
    TITLE "0:"
    INDEX 01 01:25:13
